<svg width="253" height="223" viewBox="0 0 253 223" fill="none" xmlns="http://www.w3.org/2000/svg">
<path d="M200.263 134.599C200.027 134.208 199.846 133.785 199.724 133.344L172.82 35.658C171.274 30.0411 163 31.1596 163 36.9857V217C163 219.761 165.239 222 168 222H244.143C248.035 222 250.435 217.749 248.424 214.417L200.263 134.599Z" fill="#43D9B8"/>
<path d="M114 20H152L140 120L152 222H102L124 120L114 20Z" fill="#43D9B8"/>
<path d="M53.1522 134.77C53.3909 134.377 53.5742 133.953 53.697 133.51L80.8921 35.4152C82.4473 29.8057 90.7104 30.9299 90.7104 36.751V217.28C90.7104 220.041 88.4718 222.28 85.7104 222.28H8.88696C4.98839 222.28 2.58963 218.016 4.61349 214.684L53.1522 134.77Z" fill="#43D9B8"/>
</svg>
